<?xml version="1.0" encoding="utf-8"?>
<!-- Generator: Adobe Illustrator 20.1.0, SVG Export Plug-In . SVG Version: 6.00 Build 0)  -->
<svg version="1.1" id="Layer_1" xmlns="http://www.w3.org/2000/svg" xmlns:xlink="http://www.w3.org/1999/xlink" x="0px" y="0px"
	 viewBox="0 0 512 512" style="enable-background:new 0 0 512 512;" xml:space="preserve">
<style type="text/css">
	.st0{fill:#DB0080;}
	.st1{fill:#22AC38;}
</style>
<path class="st0" d="M256.2,6C118.1,6,6.2,117.9,6.2,256s111.9,250,250,250s250-111.9,250-250S394.3,6,256.2,6z M379.4,327
	c-29.3,32.5-65,57.1-101.9,80.1c-7.5,4.7-15.2,9-23.2,12.7c-3,1.4-8.3,2.2-10.4,0.6c-2.1-1.6-2.2-6.8-2-10.3c0.3-6,2-11.8,2.3-17.8
	c0.5-10.7-2.2-13.7-13-16c-9-1.9-18.3-3.2-27.2-5.9c-43.7-13.1-79.5-36.7-97.5-80.3c-18.4-44.6-8-86.6,28.5-122.6
	c24.2-23.9,54-37.3,87.2-42.8c52.3-8.7,100.7,1.1,143.2,33.9c21.2,16.4,36.2,37.6,43.6,63.5c2.5,8.9,2.7,18.4,3.9,27.6
	C412.1,280.1,399.3,305,379.4,327z"/>
<g>
	<path class="st1" d="M251.8,244c0,11-0.1,21.9,0,32.9c0.1,5.7-1.3,10.3-8,10.3c-6.6,0-8.3-4.4-8.3-10.2c0.1-18.5-0.2-37,0.3-55.5
		c0.1-3.4,2.5-7.9,5.3-9.7c4.2-2.7,8.1,0.2,10.9,4c9.8,13.2,19.7,26.4,31,41.4c0-13.3,0.1-24.5-0.1-35.6c-0.1-5.7,1.2-10.2,7.9-10.6
		c5.5-0.3,8.3,3.3,8.3,10.8c0,18.3,0.3,36.5-0.2,54.8c-0.1,3.4-2.3,8.1-5,9.8c-4.4,2.7-8.4-0.3-11.5-4.4
		c-9.6-12.9-19.3-25.6-29-38.4C252.8,243.8,252.3,243.9,251.8,244z"/>
	<path class="st1" d="M325.6,227.5c0,4.7,0,8.3,0,13c6.8,0,13.7,0,20.5,0c7,0.1,11.2,3.3,10.8,8.6c-0.6,6.6-5.1,7.9-10.8,7.7
		c-6.7-0.2-13.3,0-20.4,0c0,5,0,9.2,0,14.2c7.2,0,14.1-0.1,21,0c6.6,0.1,10.5,3.3,10.1,8.5c-0.5,6-4.5,7.9-10,7.9
		c-9.4-0.1-18.7-0.1-28.1,0c-6.5,0-9.8-2.9-9.8-9.6c0-19,0.1-38,0-56.9c0-6.6,3.1-9.8,9.6-9.9c9.6-0.1,19.2,0,28.8,0
		c5.7,0,9.5,2.6,9.4,8.4c-0.1,5.9-4.2,8.2-9.7,8.1C340.2,227.5,333.2,227.5,325.6,227.5z"/>
	<path class="st1" d="M169.9,271c7.6,0,14.4,0.1,21.3,0c5.5-0.1,9.6,1.7,9.8,7.9c0.2,6.7-4.1,8.4-9.9,8.4c-9.1-0.1-18.2,0.1-27.3,0
		c-7.4-0.1-10.2-2.6-10.2-9.8c-0.1-18.9-0.1-37.9,0-56.8c0-5.5,2.3-9.5,8.3-9.5c6,0.1,8.1,4.1,8.1,9.7
		C169.8,237.3,169.9,253.8,169.9,271z"/>
	<path class="st1" d="M225,248.6c0,9.4,0,18.8,0,28.1c0,5.7-1.5,10.3-8.1,10.4c-6.5,0.1-8.5-4.2-8.5-10c0-18.8,0-37.5,0-56.3
		c0-5.6,2.2-9.7,8.1-9.8c6.4-0.1,8.5,4.2,8.5,10.1C224.9,230.3,225,239.5,225,248.6z"/>
</g>
</svg>
